<svg xmlns="http://www.w3.org/2000/svg" viewBox="0 0 884 342">
  <path stroke="#000" stroke-miterlimit="10" stroke-width="2" d="M442 244c-21.6667 0-32.4774 11.4427-37.8358 21.9319A48.6462 48.6462 0 0 0 399 288.0809V341h-69v-48.7946a41.3285 41.3285 0 0 0-17.257-33.8354c-12.9616-9.144-24.6949-7.0107-33.8675-1.5945A41.198 41.198 0 0 0 259 292.3615V341H1V213h66v-5h62v-12h69v-8h18v-20c-16.0863-1.3988-39.9994-21.3861-52.9221-33.2757A69.4207 69.4207 0 0 0 141 121v-5l14-6v-7c72 12 88 4 88 4V91h-11l-8-3h-11l-33.3594-41.6993A119.65 119.65 0 0 0 165 31v-7h9v-8c72 15 129-9 129-9V1h8v8c40 8 131 7 131 7s91 1 131-7V1h8v6s57 24 129 9v8h9v7a119.65 119.65 0 0 0-14.6406 15.3007L671 88h-11l-8 3h-11v16s16 8 88-4v7l14 6v5a69.4207 69.4207 0 0 0-22.0779 13.7243C707.9994 146.6139 684.0863 166.6012 668 168v20h18v8h69v12h62v5h66v128H625v-48.6385a41.198 41.198 0 0 0-19.8755-35.5857c-9.1726-5.4162-20.9059-7.5495-33.8675 1.5945A41.3285 41.3285 0 0 0 554 292.2054V341h-69v-52.9191a48.6462 48.6462 0 0 0-5.1642-22.149C474.4774 255.4427 463.6667 244 442 244z"/>
</svg>
