<svg xmlns="http://www.w3.org/2000/svg" viewBox="0 0 1359.9999 1360"><title>icon-flag</title><circle cx="680" cy="680" r="640" style="fill:#333;stroke:#ff6400;stroke-miterlimit:10;stroke-width:80px"/><path d="M883.9447,482.66h0c13.4,0,26.9.5,40.3,1.5l28.4,2.2v271.8l-23.4-1.7c-16.8-1.2-33.8-1.9-50.6-1.9a683.9528,683.9528,0,0,0-175.8,22.9l-116.6,31a312.2206,312.2206,0,0,1-139.3,4.7l-18.6-3.6V540.16a475.7156,475.7156,0,0,0,80.8,7,467.6261,467.6261,0,0,0,119.1-15.3l123-32.2a523.2077,523.2077,0,0,1,132.7-17m0-80a604.866,604.866,0,0,0-152.9,19.6l-123,32.2a392.0153,392.0153,0,0,1-98.8,12.7,390.0208,390.0208,0,0,1-73.8-7l-87.1-16.7v432.1l83.3,16.2a391.21,391.21,0,0,0,175.1-5.9l116.6-31a605.8725,605.8725,0,0,1,155.2-20.2c14.9,0,29.9.5,44.8,1.6l109.3,8.1V412.26l-102.3-7.8c-15.5-1.3-31-1.8-46.4-1.8Z" transform="translate(-7.9447 -8.2596)" style="fill:#fff"/><polygon points="418 621 340.4 621 340.4 1004 418 1004 418 621" style="fill:#fff"/></svg>