<svg xmlns="http://www.w3.org/2000/svg" viewBox="0 0 1360 1360"><title>icon-env</title><circle cx="680" cy="680" r="640" style="fill:#333;stroke:#ff6400;stroke-miterlimit:10;stroke-width:80px"/><path d="M599.02,439.2028c0,67.5112-55.0951,155.9747-122.6074,155.9747S353.8052,507.4894,353.8052,439.2028c0-67.5111,55.0952-122.6075,122.6075-122.6075S599.02,371.69,599.02,439.2028Z" transform="translate(-2.3617 -9.4894)" style="fill:#fff;stroke:#333;stroke-miterlimit:10;stroke-width:10px"/><path d="M476.4124,607.5438c-102.4309,0-188.5671,62.8553-216.5027,148.9905-9.3115,29.4882,12.4157,60.528,43.4555,60.528H649.4586c30.2643,0,52.7679-29.4882,44.2312-58.2C665.7554,671.1763,578.8442,607.5438,476.4124,607.5438Z" transform="translate(-2.3617 -9.4894)" style="fill:#fff;stroke:#333;stroke-miterlimit:10;stroke-width:10px"/><path d="M997.114,444.2692c0,67.511-55.0952,155.9746-122.6075,155.9746S751.899,512.5562,751.899,444.2692c0-67.5112,55.0952-122.6075,122.6075-122.6075S997.114,376.7571,997.114,444.2692Z" transform="translate(-2.3617 -9.4894)" style="fill:#fff;stroke:#333;stroke-miterlimit:10;stroke-width:10px"/><path d="M874.5065,612.6105c-102.4309,0-188.567,62.8554-216.5026,148.9906-9.3115,29.4881,12.4157,60.5279,43.4555,60.5279h346.0932c30.2644,0,52.768-29.4882,44.2314-58.2C1063.85,676.2426,976.9384,612.6105,874.5065,612.6105Z" transform="translate(-2.3617 -9.4894)" style="fill:#fff;stroke:#333;stroke-miterlimit:10;stroke-width:10px"/><path d="M833.5112,562.3748c0,87.0617-71.0507,201.1436-158.1135,201.1436S517.2841,650.437,517.2841,562.3748c0-87.0618,71.0506-158.1136,158.1136-158.1136S833.5112,475.3118,833.5112,562.3748Z" transform="translate(-2.3617 -9.4894)" style="fill:#fff;stroke:#333;stroke-miterlimit:10;stroke-width:60px"/><path d="M675.3977,779.4664c-132.094,0-243.1744,81.0577-279.2,192.1369-12.008,38.0278,16.0113,78.0563,56.04,78.0563H898.5565c39.0282,0,68.0492-38.0278,57.04-75.0537C919.5723,861.5257,807.4929,779.4664,675.3977,779.4664Z" transform="translate(-2.3617 -9.4894)" style="fill:#fff;stroke:#333;stroke-miterlimit:10;stroke-width:60px"/></svg>